<svg width="260" height="260" viewBox="0 0 260 260" fill="none" xmlns="http://www.w3.org/2000/svg"><style>@media (prefers-color-scheme:dark){path{fill:#ff9eb3}}</style><path d="M82 170.814h32.204v27.33c0 17.127 5.855 24.416 16.101 24.416 10.247 0 15.37-7.289 15.37-24.416-.366-21.5-6.221-33.89-27.446-56.483-19.03-20.407-28.91-36.44-33.301-54.66-1.83-7.289-2.562-15.306-2.562-23.687C82.366 23.958 99.2 1 130.305 1c31.106 0 46.842 22.229 46.842 63.042V87h-30.374V61.492c0-17.128-5.489-24.78-16.102-24.78-10.612 0-16.101 8.017-16.101 24.415 0 9.11 1.829 17.127 6.587 25.873 4.391 8.017 10.978 16.763 21.225 27.695 26.348 28.059 34.765 47.373 35.497 80.17 0 38.627-15.004 64.135-47.939 64.135C97.004 259 82 236.407 82 194.865v-24.051z" fill="#2B4D6E"/></svg>