<svg xmlns="http://www.w3.org/2000/svg" viewBox="0 0 153 68" fill="none" width="120" height="54" class="margin-off header__logo-image" role="img" focusable="false"><path d="M.58 44.393h8.36v7.095c0 4.446 1.52 6.338 4.18 6.338 2.66 0 3.99-1.892 3.99-6.338-.096-5.582-1.616-8.798-7.126-14.663-4.94-5.298-7.505-9.46-8.645-14.19-.475-1.893-.665-3.974-.665-6.15C.674 6.268 5.044.308 13.12.308s12.16 5.771 12.16 16.366v5.96h-7.884v-6.622c0-4.446-1.426-6.433-4.18-6.433-2.756 0-4.18 2.082-4.18 6.339 0 2.365.474 4.446 1.71 6.716 1.14 2.082 2.85 4.352 5.51 7.19 6.84 7.284 9.025 12.298 9.215 20.812 0 10.028-3.895 16.65-12.446 16.65-8.55 0-12.445-5.865-12.445-16.65v-6.243zM30.536 67.16L38.041.381h12.73l7.41 66.782h-7.6l-1.425-12.976h-9.595l-1.425 12.976h-7.6v-.003zm10.07-21.846h7.6l-3.8-34.06-3.8 34.06zm22.643-.921h8.36v7.095c0 4.446 1.52 6.338 4.18 6.338 2.66 0 3.99-1.892 3.99-6.338-.095-5.582-1.615-8.798-7.125-14.663-4.94-5.298-7.505-9.46-8.645-14.19-.475-1.893-.665-3.974-.665-6.15 0-10.217 4.37-16.177 12.445-16.177 8.076 0 12.16 5.771 12.16 16.366v5.96h-7.885v-6.622c0-4.446-1.425-6.433-4.18-6.433s-4.18 2.082-4.18 6.339c0 2.365.475 4.446 1.71 6.716 1.14 2.082 2.85 4.352 5.51 7.19 6.84 7.284 9.025 12.298 9.215 20.812 0 10.028-3.894 16.65-12.445 16.65-8.55 0-12.445-5.865-12.445-16.65v-6.243zM122.052.29l-10.45 33.198 10.618 33.735h-10.121l-8.956-31.064v31.004h-8.36V.384h8.36v30.43L111.89.29h10.165-.003zm5.636.091h8.361v35.394c0 4.484 1.52 6.392 4.18 6.392 2.66 0 4.275-1.908 4.275-6.392V.38h8.075v50.278c0 10.781-4.18 16.504-12.445 16.504h-11.496v-9.539h11.401c2.66 0 4.465-1.907 4.465-6.486v-.095c-1.33.476-2.755.669-4.37.669-8.17 0-12.446-5.916-12.446-16.792V.381z" fill="#2B4D6E"></path><title>SASKY koulutuskunta­yhtymä</title></svg>